<svg width="450" height="450" viewBox="0 0 450 450" fill="none" xmlns="http://www.w3.org/2000/svg">
<circle cx="225" cy="225" r="225" fill="#E4BF34"/>
<circle cx="225" cy="225" r="225" fill="url(#paint0_linear)"/>
<path d="M123.875 220.156C123.5 220.094 123.125 220.094 122.75 220.156C122.438 220.219 122.125 220.219 121.812 220.156C121.25 219.906 120.906 219.781 120.781 219.781C120.656 219.719 120.594 219.625 120.594 219.5C119.969 219.562 119.625 219.531 119.562 219.406C119.562 219.281 119.5 219.219 119.375 219.219C118.562 219.094 117.938 218.875 117.5 218.562C116.875 218.375 116.469 218.281 116.281 218.281C116.094 218.219 115.938 218.188 115.812 218.188C115.5 218.062 115.062 218.062 114.5 218.188C114.062 218.25 113.75 218.25 113.562 218.188C113.438 218.125 113.312 218.094 113.188 218.094C112.812 218.156 112.5 218.188 112.25 218.188C112.062 218.125 111.875 218.094 111.688 218.094C111.125 218.094 110.781 218.125 110.656 218.188C110.531 218.188 110.406 218.188 110.281 218.188C109.656 218.062 109.219 218 108.969 218C108.094 217.938 107.312 218.062 106.625 218.375C106.25 218.25 105.875 218.25 105.5 218.375C105.188 218.5 104.875 218.594 104.562 218.656C104.312 218.656 104.062 218.625 103.812 218.562C103.625 218.5 103.375 218.531 103.062 218.656C102.938 218.781 102.875 219 102.875 219.312C102.875 219.625 102.938 219.875 103.062 220.062C102.938 220.375 102.875 220.688 102.875 221C102.938 221.25 102.969 221.531 102.969 221.844C102.844 222.656 102.75 223.156 102.688 223.344C102.688 223.594 102.688 223.844 102.688 224.094C102.75 224.281 102.75 224.5 102.688 224.75C102.688 225.562 102.719 226.094 102.781 226.344C102.844 226.594 102.875 226.875 102.875 227.188C102.562 228.062 102.438 228.656 102.5 228.969C102.688 229.531 102.812 229.875 102.875 230C102.938 230.062 102.969 230.156 102.969 230.281C102.844 231.219 102.781 231.906 102.781 232.344C102.844 232.719 102.875 233.125 102.875 233.562C102.875 233.812 102.844 234.062 102.781 234.312C102.781 234.5 102.781 234.75 102.781 235.062C103.031 235.875 103.125 236.406 103.062 236.656C103.062 236.906 103.062 237.156 103.062 237.406C103.125 237.781 103.188 238.156 103.25 238.531C103.375 238.906 103.438 239.281 103.438 239.656C103.5 240.156 103.469 240.656 103.344 241.156C103.281 241.594 103.312 242.062 103.438 242.562C103.438 242.75 103.469 242.969 103.531 243.219C103.656 243.406 103.719 243.562 103.719 243.688C103.719 244.125 103.625 244.5 103.438 244.812C103.312 245.125 103.156 245.438 102.969 245.75C102.656 245.75 102.375 245.781 102.125 245.844C101.875 245.906 101.656 245.875 101.469 245.75C101.031 245.875 100.594 245.906 100.156 245.844C99.7188 245.844 99.2812 245.906 98.8438 246.031C98.5938 245.906 98.25 245.844 97.8125 245.844C97.5 245.781 97.125 245.75 96.6875 245.75C96.3125 245.812 95.875 245.844 95.375 245.844C95.1875 245.781 94.9062 245.781 94.5312 245.844C94.2188 245.906 94.0312 245.938 93.9688 245.938C93.4062 245.75 92.9375 245.625 92.5625 245.562C92.25 245.562 91.9375 245.562 91.625 245.562C91.375 245.5 91.0625 245.469 90.6875 245.469C90.3125 245.531 90 245.562 89.75 245.562C88.9375 245.5 88.4062 245.375 88.1562 245.188C87.9688 245.062 87.7188 245.031 87.4062 245.094L86.5625 244.438C86 243.938 85.7188 243.656 85.7188 243.594C85.4062 242.844 85.2812 242.312 85.3438 242C85.4062 241.688 85.5 241.375 85.625 241.062C85.6875 240.812 85.7188 240.594 85.7188 240.406C85.7188 240.219 85.75 239.969 85.8125 239.656C85.875 239.531 85.875 239.344 85.8125 239.094C85.8125 238.844 85.8125 238.594 85.8125 238.344C85.8125 238.094 85.8125 237.875 85.8125 237.688C85.875 237.5 85.9375 237.281 86 237.031C86.0625 236.594 86.0938 236.094 86.0938 235.531C86.0938 234.969 86.1562 234.5 86.2812 234.125C86.4062 233.562 86.4375 233.156 86.375 232.906C86.375 232.656 86.375 232.469 86.375 232.344C86.3125 231.906 86.2812 231.656 86.2812 231.594C86.3438 231.531 86.375 231.438 86.375 231.312C86.3125 230.562 86.3125 230.031 86.375 229.719C86.4375 229.344 86.4688 228.906 86.4688 228.406C86.4062 227.656 86.375 227.219 86.375 227.094C86.4375 226.906 86.4688 226.75 86.4688 226.625C86.4688 226.312 86.4375 226.031 86.375 225.781C86.375 225.469 86.3438 225.156 86.2812 224.844C86.2812 224.594 86.25 224.375 86.1875 224.188C86.1875 224 86.1562 223.781 86.0938 223.531C86.0938 223.094 86.125 222.812 86.1875 222.688C86.25 222.5 86.2812 222.344 86.2812 222.219C86.3438 221.969 86.3438 221.688 86.2812 221.375C86.2812 221 86.3125 220.719 86.375 220.531C86.375 220.094 86.375 219.75 86.375 219.5C86.375 219.25 86.3438 218.969 86.2812 218.656C86.1562 218.031 86.0938 217.562 86.0938 217.25C86.1562 216.812 86.1875 216.406 86.1875 216.031C86.25 215.656 86.25 215.25 86.1875 214.812C86.1875 214.625 86.1875 214.438 86.1875 214.25C86.1875 214 86.1562 213.75 86.0938 213.5C86.0938 213.312 86.0625 213.125 86 212.938C86 212.75 86 212.531 86 212.281C86 212.094 86 211.906 86 211.719C86 211.469 86.0312 211.25 86.0938 211.062V209.75C86.1562 209.562 86.2188 209.406 86.2812 209.281C86.3438 209.094 86.375 208.906 86.375 208.719C86.25 207.969 86.25 207.469 86.375 207.219C86.5 206.656 86.4688 206.156 86.2812 205.719C86.4062 205.594 86.4375 205.469 86.375 205.344C86.375 205.156 86.4062 204.938 86.4688 204.688C86.4688 204.375 86.5 204.062 86.5625 203.75C86.6875 203.438 86.7188 203.125 86.6562 202.812C86.3438 201.938 86.1875 201.219 86.1875 200.656C86.25 200.094 86.2812 199.562 86.2812 199.062C86.2812 198.312 86.2812 197.906 86.2812 197.844C86.3438 197.781 86.375 197.688 86.375 197.562C86.25 196.812 86.2188 196.344 86.2812 196.156C86.3438 195.969 86.4062 195.781 86.4688 195.594C86.5938 194.844 86.625 194.406 86.5625 194.281C86.5 194.094 86.5312 193.906 86.6562 193.719V191.938C86.5312 191.625 86.5 191.312 86.5625 191C86.6875 190.625 86.75 190.281 86.75 189.969C86.6875 189.531 86.6875 189.219 86.75 189.031C86.8125 188.844 86.7188 188.719 86.4688 188.656C86.5938 188.031 86.6562 187.656 86.6562 187.531C86.7188 187.406 86.7188 187.25 86.6562 187.062L86.4688 185.656C86.3438 185.531 86.2812 185.344 86.2812 185.094C86.3438 184.781 86.375 184.5 86.375 184.25C86.1875 183.5 86.0938 183.031 86.0938 182.844C86.1562 182.656 86.1875 182.469 86.1875 182.281C86.0625 181.594 86 181.219 86 181.156C86.0625 181.094 86.0938 181.031 86.0938 180.969C85.9688 180.344 85.875 179.875 85.8125 179.562C85.8125 179.25 85.75 178.906 85.625 178.531C85.8125 177.844 85.9375 177.438 86 177.312C86.125 177.188 86.1562 177.062 86.0938 176.938C86.7812 176.625 87.125 176.438 87.125 176.375C87.1875 176.312 87.2812 176.25 87.4062 176.188C88.1562 175.938 88.7188 175.812 89.0938 175.812C89.4688 175.938 89.6875 176 89.75 176C89.875 175.938 90 175.906 90.125 175.906C90.6875 175.906 91.0938 175.938 91.3438 176C91.5938 176 91.875 176.031 92.1875 176.094C92.5625 176.094 92.9062 176.062 93.2188 176C93.5312 175.875 93.8438 175.938 94.1562 176.188C94.2812 176.062 94.4375 176.062 94.625 176.188C94.875 176.25 95.0625 176.25 95.1875 176.188L96.5938 176C97.6562 175.812 98.4062 175.812 98.8438 176C99.3438 176.188 99.9375 176.25 100.625 176.188C100.938 176.125 101.219 176.094 101.469 176.094C101.719 176.031 101.938 175.938 102.125 175.812C102.688 175.75 103.031 175.75 103.156 175.812C103.344 175.812 103.531 175.812 103.719 175.812C104.094 175.875 104.469 175.906 104.844 175.906C105.219 175.844 105.594 175.812 105.969 175.812C106.219 175.812 106.469 175.844 106.719 175.906C106.969 175.906 107.219 175.906 107.469 175.906C107.656 175.906 107.844 175.906 108.031 175.906C108.281 175.844 108.5 175.812 108.688 175.812C109 176 109.281 176.062 109.531 176C109.844 175.938 110.062 175.906 110.188 175.906C110.625 175.906 111 175.938 111.312 176C111.688 176 112.094 176 112.531 176C112.781 176 113.156 175.938 113.656 175.812C114.406 175.938 114.906 176 115.156 176C115.406 176 115.656 176.031 115.906 176.094C116.406 176.219 116.75 176.25 116.938 176.188C117.75 175.938 118.281 175.844 118.531 175.906C118.781 175.906 119 175.875 119.188 175.812C119.75 175.625 120.125 175.562 120.312 175.625C120.5 175.625 120.656 175.562 120.781 175.438L122.094 175.25C122.469 175.125 122.719 175.094 122.844 175.156C123.031 175.156 123.188 175.125 123.312 175.062C123.875 175.312 124.156 175.5 124.156 175.625C124.156 175.688 124.188 175.781 124.25 175.906C124.375 176.094 124.469 176.281 124.531 176.469C124.594 176.594 124.688 176.781 124.812 177.031C124.938 177.656 125.062 178.031 125.188 178.156C125.438 178.781 125.562 179.219 125.562 179.469C125.562 179.719 125.625 179.969 125.75 180.219C125.812 180.406 125.875 180.594 125.938 180.781C126.062 180.906 126.156 181.031 126.219 181.156C126.219 181.594 126.25 181.938 126.312 182.188C126.562 182.938 126.656 183.406 126.594 183.594C126.531 183.781 126.562 183.938 126.688 184.062C126.688 184.312 126.719 184.531 126.781 184.719C126.844 184.906 126.906 185.125 126.969 185.375C127.031 185.688 127.031 186 126.969 186.312C126.969 186.562 127 186.844 127.062 187.156C127.062 187.344 127.094 187.531 127.156 187.719C127.219 187.906 127.281 188.094 127.344 188.281C127.406 188.469 127.406 188.688 127.344 188.938C127.344 189.125 127.375 189.312 127.438 189.5C127.438 189.938 127.438 190.375 127.438 190.812C127.438 191.188 127.281 191.531 126.969 191.844C126.594 191.906 126.281 191.969 126.031 192.031C125.781 192.031 125.5 192.062 125.188 192.125C124.438 192.188 123.938 192.219 123.688 192.219C123.5 192.219 123.25 192.188 122.938 192.125C122.375 192 122.031 191.906 121.906 191.844C121.844 191.781 121.781 191.75 121.719 191.75L120.312 191.469C120.062 191.344 119.781 191.25 119.469 191.188C119.156 191.125 118.875 191.031 118.625 190.906C118.312 191.031 118 191.031 117.688 190.906C117.375 190.781 117.062 190.688 116.75 190.625C115.875 190.5 115.031 190.5 114.219 190.625H111.875C111.438 190.562 111.031 190.531 110.656 190.531C110.344 190.469 109.938 190.469 109.438 190.531C109.25 190.531 109.031 190.562 108.781 190.625C108.594 190.625 108.406 190.5 108.219 190.25C107.969 190.312 107.625 190.344 107.188 190.344C106.75 190.344 106.469 190.375 106.344 190.438C106.281 190.438 106.219 190.438 106.156 190.438C105.531 190.312 105.219 190.281 105.219 190.344C105.219 190.344 105.156 190.344 105.031 190.344C104.156 190.406 103.594 190.5 103.344 190.625C103.156 190.688 102.938 190.719 102.688 190.719L101.938 192.312C101.875 193 101.844 193.406 101.844 193.531C101.906 193.656 101.938 193.781 101.938 193.906C102.062 194.219 102.094 194.562 102.031 194.938C102.031 195.312 102.062 195.625 102.125 195.875C102.188 196.438 102.219 196.844 102.219 197.094C102.219 197.344 102.219 197.594 102.219 197.844C102.219 198.344 102.219 198.656 102.219 198.781C102.281 198.906 102.281 199.094 102.219 199.344C102.219 199.469 102.219 199.688 102.219 200C102.281 200.25 102.312 200.5 102.312 200.75C102.25 201.125 102.219 201.375 102.219 201.5C102.281 201.625 102.312 201.75 102.312 201.875C102.312 202.062 102.281 202.281 102.219 202.531C102.219 202.781 102.25 202.969 102.312 203.094C102.938 203.531 103.281 203.844 103.344 204.031C103.469 204.219 103.656 204.312 103.906 204.312C104.344 204.312 104.781 204.312 105.219 204.312C105.656 204.312 105.969 204.344 106.156 204.406C106.844 204.344 107.281 204.344 107.469 204.406C107.719 204.406 107.969 204.406 108.219 204.406C108.844 204.406 109.219 204.438 109.344 204.5C109.531 204.5 109.688 204.5 109.812 204.5C110.375 204.375 110.688 204.344 110.75 204.406C110.812 204.469 110.906 204.531 111.031 204.594C111.656 204.531 111.969 204.5 111.969 204.5C111.969 204.438 112.031 204.406 112.156 204.406C112.781 204.469 113.25 204.5 113.562 204.5C113.875 204.438 114.25 204.375 114.688 204.312C115.125 204.312 115.438 204.344 115.625 204.406C115.812 204.469 116 204.5 116.188 204.5C116.375 204.5 116.531 204.5 116.656 204.5C116.844 204.438 117.031 204.406 117.219 204.406C117.531 204.406 117.875 204.406 118.25 204.406C118.625 204.406 118.969 204.375 119.281 204.312C120.219 204.438 120.875 204.531 121.25 204.594C121.625 204.594 121.938 204.531 122.188 204.406C122.312 204.344 122.531 204.344 122.844 204.406C123.219 204.406 123.5 204.438 123.688 204.5C123.875 204.562 124.031 204.656 124.156 204.781C124.344 204.844 124.531 204.812 124.719 204.688C125.156 205.188 125.438 205.562 125.562 205.812C125.688 205.938 125.781 206.094 125.844 206.281C125.969 206.406 126.062 206.562 126.125 206.75C126.125 207 126.094 207.219 126.031 207.406C125.969 207.531 125.938 207.688 125.938 207.875C126.062 208.688 126.094 209.188 126.031 209.375C125.969 209.562 125.906 209.75 125.844 209.938C125.844 210.25 125.844 210.562 125.844 210.875C125.844 211.125 125.812 211.375 125.75 211.625C125.688 211.875 125.656 212.125 125.656 212.375C125.719 212.625 125.719 212.906 125.656 213.219C125.469 214.031 125.375 214.531 125.375 214.719C125.438 214.906 125.469 215.156 125.469 215.469C125.406 216.031 125.375 216.375 125.375 216.5C125.438 216.562 125.469 216.656 125.469 216.781C125.031 217.406 124.812 217.812 124.812 218C124.812 218.188 124.75 218.344 124.625 218.469C124.375 218.969 124.219 219.344 124.156 219.594C124.094 219.844 124 220.031 123.875 220.156Z" fill="white"/>
<path d="M133.531 214.719C133.781 214.031 133.906 213.469 133.906 213.031C133.906 212.594 134 212.25 134.188 212V210.781C134.5 210.031 134.656 209.562 134.656 209.375C134.781 208.688 134.844 208.312 134.844 208.25C134.844 208.125 134.875 208 134.938 207.875C135 207.625 135.125 207.219 135.312 206.656C135.562 205.906 135.75 205.375 135.875 205.062C136 204.75 136.125 204.469 136.25 204.219C136.562 203.719 136.719 203.406 136.719 203.281C136.719 203.156 136.781 203.031 136.906 202.906C137.031 202.719 137.188 202.531 137.375 202.344C137.562 202.094 137.656 201.812 137.656 201.5C138.156 200.875 138.594 200.5 138.969 200.375C139.219 199.75 139.438 199.406 139.625 199.344C139.812 199.219 139.875 199 139.812 198.688C140.062 198.562 140.25 198.438 140.375 198.312C140.5 198.125 140.719 197.969 141.031 197.844C141.281 197.281 141.406 196.969 141.406 196.906C141.469 196.844 141.562 196.781 141.688 196.719C141.875 196.594 142.062 196.438 142.25 196.25C142.438 196.062 142.625 195.875 142.812 195.688C143.312 195.375 143.656 195.219 143.844 195.219C144.469 194.781 144.938 194.5 145.25 194.375C145.562 194.25 145.781 194.031 145.906 193.719C146.156 193.719 146.344 193.688 146.469 193.625C146.656 193.562 146.844 193.5 147.031 193.438C147.656 193.125 148 192.938 148.062 192.875C148.188 192.812 148.281 192.781 148.344 192.781C148.469 192.656 148.625 192.531 148.812 192.406C149 192.281 149.156 192.156 149.281 192.031C149.656 192.031 150 191.938 150.312 191.75L151.438 191.562C152.062 191.312 152.406 191.219 152.469 191.281C152.594 191.344 152.75 191.344 152.938 191.281C153.375 191.219 153.656 191.156 153.781 191.094C153.906 190.969 154.031 190.875 154.156 190.812C154.656 190.75 155.219 190.656 155.844 190.531C156.094 190.469 156.281 190.406 156.406 190.344C156.594 190.281 156.812 190.219 157.062 190.156C157.562 190.219 157.969 190.219 158.281 190.156C158.594 190.094 158.906 190.062 159.219 190.062C159.469 190.062 159.719 190.094 159.969 190.156C160.219 190.219 160.469 190.281 160.719 190.344C161.156 190.344 161.531 190.344 161.844 190.344C162.219 190.344 162.625 190.375 163.062 190.438C163.312 190.625 163.562 190.781 163.812 190.906C164.125 190.969 164.438 191.062 164.75 191.188C165.5 191.5 166.031 191.781 166.344 192.031C167.094 192.219 167.656 192.438 168.031 192.688C168.656 193.062 169.031 193.281 169.156 193.344C169.281 193.406 169.406 193.438 169.531 193.438C170.344 193.875 170.938 194.219 171.312 194.469C171.688 194.781 171.969 195.031 172.156 195.219C172.281 195.344 172.406 195.438 172.531 195.5C172.719 195.562 172.906 195.656 173.094 195.781L173.938 197C174.25 197.312 174.438 197.531 174.5 197.656C174.562 197.719 174.656 197.719 174.781 197.656C175.094 198.156 175.25 198.469 175.25 198.594C175.312 198.656 175.406 198.719 175.531 198.781C176.031 199.469 176.281 199.844 176.281 199.906C176.656 200.531 176.875 200.938 176.938 201.125C177.062 201.25 177.188 201.438 177.312 201.688C177.5 202.312 177.625 202.719 177.688 202.906C177.812 203.094 177.906 203.281 177.969 203.469C178.156 203.781 178.25 204.031 178.25 204.219C178.312 204.406 178.438 204.531 178.625 204.594C178.562 204.906 178.594 205.219 178.719 205.531C178.844 205.844 178.969 206.125 179.094 206.375C179.094 206.625 179.156 207 179.281 207.5C179.406 208.25 179.469 208.719 179.469 208.906C179.531 209.094 179.562 209.25 179.562 209.375C179.75 209.75 179.812 210.031 179.75 210.219C179.75 210.344 179.781 210.5 179.844 210.688C179.844 210.938 179.875 211.156 179.938 211.344C180 211.531 180.062 211.719 180.125 211.906C180.25 212.969 180.25 214.156 180.125 215.469C180.062 215.906 180 216.25 179.938 216.5C179.938 216.75 179.875 217.062 179.75 217.438C179.125 217.688 178.688 217.875 178.438 218C178 218.312 177.625 218.469 177.312 218.469C177 218.469 176.75 218.625 176.562 218.938C176.062 218.812 175.781 218.812 175.719 218.938C175.719 219.062 175.656 219.125 175.531 219.125C174.844 219.375 174.438 219.5 174.312 219.5C174.188 219.5 174.094 219.562 174.031 219.688C173.781 219.625 173.531 219.656 173.281 219.781C173.094 219.906 172.875 220 172.625 220.062C171.812 220 171.094 220.094 170.469 220.344C169.969 220.469 169.469 220.625 168.969 220.812C168.531 220.938 168.062 221.062 167.562 221.188C167.062 221.438 166.625 221.562 166.25 221.562C165.625 221.938 165.188 222.156 164.938 222.219C164.688 222.219 164.469 222.281 164.281 222.406C163.906 222.594 163.469 222.781 162.969 222.969C162.469 223.094 161.969 223.125 161.469 223.062C161.344 223.188 161.188 223.25 161 223.25C160.875 223.188 160.688 223.188 160.438 223.25C159.812 223.5 159.5 223.656 159.5 223.719C159.5 223.719 159.469 223.719 159.406 223.719C159.094 223.844 158.781 223.938 158.469 224C158.156 224 157.844 224.062 157.531 224.188C157.344 224.312 157.062 224.406 156.688 224.469C156.375 224.531 156.094 224.656 155.844 224.844C155.656 224.781 155.469 224.812 155.281 224.938C155.094 225 154.875 225.062 154.625 225.125C154.312 224.938 154.094 224.875 153.969 224.938C153.844 224.938 153.719 224.906 153.594 224.844C153.344 224.594 153.125 224.469 152.938 224.469C152.75 224.406 152.594 224.344 152.469 224.281C152.031 223.844 151.781 223.531 151.719 223.344C151.594 223.219 151.438 223.062 151.25 222.875C151.125 222.688 151 222.531 150.875 222.406C150.75 222.094 150.562 221.844 150.312 221.656C150.125 221.469 149.969 221.219 149.844 220.906C149.344 220.469 149.094 220.125 149.094 219.875C148.656 219.25 148.406 218.906 148.344 218.844C148.344 218.781 148.344 218.688 148.344 218.562C148.094 218.25 147.844 217.938 147.594 217.625C147.344 217.312 147.156 216.906 147.031 216.406C146.719 217.156 146.562 217.656 146.562 217.906C146.625 218.156 146.656 218.406 146.656 218.656C146.719 219.219 146.844 219.656 147.031 219.969C146.906 220.094 146.875 220.281 146.938 220.531C147 220.719 147.031 220.938 147.031 221.188C147.094 221.562 147.125 221.844 147.125 222.031C147.125 222.156 147.156 222.281 147.219 222.406L147.406 223.531C147.781 224.344 147.969 224.844 147.969 225.031C148.031 225.156 148.094 225.281 148.156 225.406C148.594 225.906 148.875 226.312 149 226.625L149.469 227.656C149.969 228.344 150.25 228.75 150.312 228.875C150.75 229.375 151.094 229.75 151.344 230C152.156 230.625 152.594 231.062 152.656 231.312C153.281 231.562 153.688 231.812 153.875 232.062C154.25 232.188 154.469 232.281 154.531 232.344C154.656 232.406 154.781 232.469 154.906 232.531C155.031 232.656 155.188 232.75 155.375 232.812C155.562 232.875 155.719 232.969 155.844 233.094C156.156 233.156 156.5 233.188 156.875 233.188C157.625 233.375 158.188 233.469 158.562 233.469C159 233.406 159.375 233.438 159.688 233.562C160.188 233.562 160.688 233.5 161.188 233.375C161.5 233.25 161.719 233.188 161.844 233.188C161.969 233.188 162.094 233.125 162.219 233C162.594 232.938 162.812 232.906 162.875 232.906C163 232.844 163.125 232.781 163.25 232.719C163.812 232.406 164.125 232.25 164.188 232.25C164.25 232.188 164.344 232.094 164.469 231.969C165.156 231.719 165.5 231.594 165.5 231.594C165.938 231.281 166.188 231.062 166.25 230.938C166.312 230.75 166.406 230.594 166.531 230.469C166.969 230.156 167.219 230 167.281 230C167.406 229.938 167.469 229.844 167.469 229.719C167.969 229.531 168.219 229.438 168.219 229.438C168.281 229.375 168.375 229.375 168.5 229.438C168.938 229.312 169.188 229.281 169.25 229.344C169.375 229.344 169.469 229.375 169.531 229.438C169.719 229.562 169.906 229.719 170.094 229.906C170.281 230.031 170.5 230.156 170.75 230.281C171.125 230.719 171.344 231 171.406 231.125C171.469 231.188 171.562 231.25 171.688 231.312C172 231.938 172.156 232.25 172.156 232.25C172.469 232.688 172.656 232.938 172.719 233C172.844 233 172.938 233.062 173 233.188C173.25 233.812 173.406 234.156 173.469 234.219C173.531 234.219 173.625 234.281 173.75 234.406C173.938 234.781 174.094 235.031 174.219 235.156C174.406 235.281 174.562 235.438 174.688 235.625C174.875 235.75 175 235.906 175.062 236.094C175.188 236.219 175.344 236.344 175.531 236.469C175.781 237.281 175.938 237.781 176 237.969C176.125 238.094 176.219 238.312 176.281 238.625C176.281 238.75 176.25 238.906 176.188 239.094C176.125 239.281 176.094 239.469 176.094 239.656C175.656 240.344 175.375 240.812 175.25 241.062C175.125 241.25 174.938 241.406 174.688 241.531C174.438 241.719 174.125 241.875 173.75 242C173.438 242.125 173.219 242.375 173.094 242.75C172.844 242.812 172.625 242.844 172.438 242.844C172.25 242.844 172.156 243 172.156 243.312C171.531 243.562 171.188 243.688 171.125 243.688C170.625 243.812 170.25 244 170 244.25C169.25 244.5 168.75 244.688 168.5 244.812C168.312 244.938 168.094 245.062 167.844 245.188C167.281 245.188 166.812 245.25 166.438 245.375C165.75 245.562 165.281 245.688 165.031 245.75C164.781 245.812 164.531 245.875 164.281 245.938C163.344 246.125 162.719 246.219 162.406 246.219C162.094 246.219 161.719 246.281 161.281 246.406C161.094 246.469 160.844 246.531 160.531 246.594C160.219 246.656 160 246.719 159.875 246.781C159.562 246.781 159.25 246.75 158.938 246.688C158.688 246.688 158.438 246.625 158.188 246.5C157.312 246.5 156.906 246.562 156.969 246.688C156.781 246.562 156.562 246.5 156.312 246.5C156.125 246.5 155.938 246.469 155.75 246.406C155.062 246.281 154.594 246.156 154.344 246.031H153.312C153 245.969 152.719 245.875 152.469 245.75C152.219 245.688 151.938 245.594 151.625 245.469C151 245.281 150.656 245.188 150.594 245.188C150.531 245.188 150.438 245.156 150.312 245.094C149.688 244.781 149.25 244.562 149 244.438C148.188 244.188 147.719 244.031 147.594 243.969C147.281 243.719 147.062 243.594 146.938 243.594C146.812 243.594 146.688 243.562 146.562 243.5C146.25 243.188 146.031 243 145.906 242.938C145.781 242.875 145.656 242.781 145.531 242.656C145.156 242.281 144.906 242.094 144.781 242.094C144.656 242.031 144.531 242 144.406 242C143.906 241.438 143.594 241.094 143.469 240.969C143.344 240.844 143.219 240.719 143.094 240.594C142.781 240.219 142.562 239.938 142.438 239.75C142.312 239.562 142.156 239.375 141.969 239.188C141.469 238.562 141.156 238.188 141.031 238.062C140.906 237.875 140.75 237.719 140.562 237.594C140.5 237.406 140.375 237.25 140.188 237.125C140.062 237 139.938 236.875 139.812 236.75C139.562 236.25 139.406 235.938 139.344 235.812C139.344 235.688 139.25 235.656 139.062 235.719C138.875 235.156 138.594 234.688 138.219 234.312C138.031 233.875 137.906 233.625 137.844 233.562C137.844 233.5 137.844 233.406 137.844 233.281C137.469 232.719 137.25 232.406 137.188 232.344C136.625 231.594 136.281 231.062 136.156 230.75C135.969 230.375 135.844 230.156 135.781 230.094C135.719 230.031 135.625 229.969 135.5 229.906C135.25 228.906 135 228.312 134.75 228.125C134.562 227.875 134.5 227.531 134.562 227.094C134.438 226.406 134.281 225.969 134.094 225.781C133.969 225.594 133.875 225.406 133.812 225.219V224C133.75 223.75 133.719 223.344 133.719 222.781C133.656 222.531 133.594 222.281 133.531 222.031C133.469 221.781 133.406 221.5 133.344 221.188C133.344 220.438 133.375 220.031 133.438 219.969C133.25 219.594 133.188 219.125 133.25 218.562C133.375 217.938 133.438 217.375 133.438 216.875C133.5 216.5 133.531 216.188 133.531 215.938C133.531 215.625 133.594 215.375 133.719 215.188L133.531 214.719ZM163.719 207.969C163.594 207.844 163.5 207.688 163.438 207.5C163.438 207.312 163.375 207.094 163.25 206.844C162.938 206.656 162.688 206.438 162.5 206.188C162.375 205.875 162.125 205.656 161.75 205.531C161.625 205.281 161.375 205.125 161 205.062C160.688 205 160.438 204.844 160.25 204.594C159.938 204.531 159.656 204.5 159.406 204.5C159.156 204.5 158.875 204.469 158.562 204.406C157.875 204.344 157.469 204.344 157.344 204.406C156.844 204.406 156.5 204.438 156.312 204.5C156.125 204.562 155.938 204.625 155.75 204.688C155.625 204.75 155.438 204.781 155.188 204.781C155 204.719 154.844 204.719 154.719 204.781C153.969 205.281 153.406 205.594 153.031 205.719C152.469 206.406 152.125 206.812 152 206.938C151.625 207.375 151.406 207.625 151.344 207.688C151.281 207.75 151.219 207.844 151.156 207.969C150.656 208.531 150.344 208.938 150.219 209.188C149.656 209.875 149.312 210.25 149.188 210.312C149.062 210.5 148.938 210.719 148.812 210.969C148.688 211.156 148.531 211.312 148.344 211.438C148.094 212.125 147.906 212.562 147.781 212.75C147.719 212.875 147.688 213.062 147.688 213.312C148.062 213.188 148.438 213.094 148.812 213.031C149.25 212.906 149.625 212.781 149.938 212.656C150.375 212.656 150.656 212.625 150.781 212.562C150.969 212.5 151.156 212.406 151.344 212.281C151.656 212.156 151.938 212.094 152.188 212.094C152.438 212.031 152.781 211.969 153.219 211.906C153.844 211.656 154.25 211.5 154.438 211.438C154.688 211.375 154.906 211.312 155.094 211.25C155.406 211.125 155.719 211.062 156.031 211.062C156.406 211.062 156.688 211 156.875 210.875C157.75 210.625 158.344 210.469 158.656 210.406C159.156 210.406 159.531 210.375 159.781 210.312C160.469 210.062 160.906 209.938 161.094 209.938C161.656 209.875 162.125 209.781 162.5 209.656C162.938 209.469 163.312 209.25 163.625 209C163.938 208.688 164.031 208.469 163.906 208.344C163.844 208.219 163.781 208.094 163.719 207.969Z" fill="white"/>
<path d="M202.531 189.5C202.844 190.312 203 190.719 203 190.719C203.375 191.344 203.594 191.688 203.656 191.75C203.719 191.812 203.812 191.844 203.938 191.844C204 192.156 204.125 192.375 204.312 192.5C204.562 192.562 204.719 192.75 204.781 193.062C205.156 193.688 205.438 194.188 205.625 194.562C205.875 194.875 206.125 195.188 206.375 195.5C206.438 195.75 206.531 195.969 206.656 196.156C206.781 196.281 206.906 196.438 207.031 196.625C207.156 196.75 207.25 196.938 207.312 197.188C207.375 197.375 207.5 197.531 207.688 197.656C208 198.219 208.25 198.656 208.438 198.969C208.688 199.281 208.781 199.656 208.719 200.094C208.156 200.656 207.812 200.938 207.688 200.938C207.562 200.938 207.5 201 207.5 201.125C206.812 201.375 206.406 201.562 206.281 201.688C206.156 201.75 206.031 201.844 205.906 201.969C205.281 202.344 204.938 202.562 204.875 202.625C204.812 202.625 204.75 202.625 204.688 202.625C204.562 202.75 204.375 202.875 204.125 203C203.938 203.125 203.781 203.281 203.656 203.469C203.469 203.469 203.281 203.5 203.094 203.562C202.969 203.625 202.812 203.719 202.625 203.844C202.25 204.156 202.031 204.375 201.969 204.5C201.906 204.562 201.812 204.656 201.688 204.781C201.375 205.156 201.156 205.438 201.031 205.625C200.969 205.812 200.844 205.969 200.656 206.094C200.406 206.531 200.281 206.781 200.281 206.844C200.344 206.906 200.344 207 200.281 207.125C200.094 207.875 199.938 208.344 199.812 208.531C199.75 208.656 199.781 208.844 199.906 209.094C200.094 209.531 200.219 209.781 200.281 209.844C200.406 209.844 200.469 209.906 200.469 210.031C200.594 210.531 200.656 210.906 200.656 211.156C201.094 211.656 201.406 212 201.594 212.188C201.844 212.312 202.031 212.469 202.156 212.656C202.469 212.969 202.656 213.156 202.719 213.219C202.781 213.219 202.844 213.281 202.906 213.406C203.219 213.781 203.406 214.062 203.469 214.25C203.531 214.375 203.625 214.5 203.75 214.625C203.938 215.25 204.094 215.594 204.219 215.656C204.406 215.719 204.531 215.844 204.594 216.031C204.906 216.531 205.125 216.875 205.25 217.062C205.375 217.25 205.562 217.375 205.812 217.438C205.875 217.75 206 218 206.188 218.188C206.438 218.375 206.656 218.594 206.844 218.844C206.969 219.094 207.094 219.312 207.219 219.5C207.344 219.688 207.531 219.844 207.781 219.969C208.219 220.656 208.469 221.125 208.531 221.375C208.594 221.625 208.75 221.812 209 221.938C209.25 222.562 209.438 223.031 209.562 223.344C209.75 223.656 209.938 223.969 210.125 224.281C210.25 224.719 210.344 225 210.406 225.125C210.531 225.188 210.594 225.281 210.594 225.406L210.781 226.719C210.906 227.469 211 227.938 211.062 228.125C211.062 228.312 211.094 228.531 211.156 228.781C211.219 228.969 211.25 229.156 211.25 229.344C211.25 229.531 211.25 229.719 211.25 229.906C211.312 230.094 211.344 230.25 211.344 230.375C211.344 230.812 211.312 231.188 211.25 231.5C211.25 231.75 211.312 232.031 211.438 232.344C211.312 232.531 211.219 232.75 211.156 233C211.094 233.25 210.969 233.438 210.781 233.562C210.781 233.875 210.719 234.125 210.594 234.312C210.531 234.5 210.438 234.688 210.312 234.875C210.062 235.438 209.875 235.75 209.75 235.812C209.625 235.875 209.625 235.969 209.75 236.094C209.375 236.406 209.188 236.594 209.188 236.656C209.188 236.719 209.125 236.812 209 236.938C208.625 237.312 208.406 237.531 208.344 237.594C208.281 237.656 208.25 237.75 208.25 237.875C207.75 238.25 207.469 238.5 207.406 238.625C207.219 238.938 207.094 239.156 207.031 239.281C206.969 239.344 206.875 239.438 206.75 239.562C206.5 239.938 206.312 240.188 206.188 240.312C206.125 240.375 206.062 240.5 206 240.688C205.75 240.688 205.562 240.781 205.438 240.969C205.312 241.156 205.188 241.312 205.062 241.438C204.688 241.75 204.5 241.969 204.5 242.094C204.5 242.156 204.438 242.188 204.312 242.188C203.938 242.688 203.688 243.031 203.562 243.219C202.812 243.719 202.312 244.156 202.062 244.531C201.375 245.094 200.844 245.562 200.469 245.938C199.781 246.438 199.375 246.719 199.25 246.781C199.125 246.844 199 246.938 198.875 247.062C198.625 247.25 198.438 247.375 198.312 247.438C198.25 247.562 198.156 247.688 198.031 247.812C197.781 247.938 197.5 248 197.188 248C196.938 248.062 196.719 248.188 196.531 248.375C196.281 248.312 196.062 248.312 195.875 248.375C195.75 248.438 195.625 248.438 195.5 248.375C195.312 248.375 195.125 248.281 194.938 248.094C194.812 247.969 194.688 247.844 194.562 247.719C194 247.281 193.688 247.062 193.625 247.062C193.5 246.688 193.375 246.438 193.25 246.312C193.188 246.188 193.094 246.062 192.969 245.938C192.531 245.438 192.25 245.094 192.125 244.906C192 244.656 191.875 244.469 191.75 244.344C191.312 243.719 191.062 243.375 191 243.312C190.625 242.812 190.406 242.531 190.344 242.469C190.344 242.406 190.312 242.344 190.25 242.281C190.062 241.844 189.906 241.594 189.781 241.531C189.656 241.406 189.531 241.281 189.406 241.156C189.094 240.469 188.938 240.094 188.938 240.031C188.938 239.906 188.906 239.781 188.844 239.656C188.719 239.469 188.594 239.281 188.469 239.094C188.344 238.844 188.219 238.656 188.094 238.531C188.094 238.094 188.062 237.844 188 237.781C188 237.656 188 237.562 188 237.5L189.219 236.75C189.344 236.625 189.5 236.531 189.688 236.469C189.875 236.406 190 236.25 190.062 236C190.25 236 190.406 235.969 190.531 235.906C190.719 235.781 190.875 235.656 191 235.531C191.5 235.281 191.75 235.125 191.75 235.062C191.812 234.938 191.875 234.844 191.938 234.781C192.438 234.594 192.812 234.438 193.062 234.312C193.438 233.812 193.688 233.531 193.812 233.469C193.938 233.344 194.062 233.219 194.188 233.094C194.75 232.594 195.031 232.312 195.031 232.25C195.219 231.75 195.375 231.469 195.5 231.406C195.625 231.344 195.688 231.25 195.688 231.125C195.812 230.25 195.844 229.594 195.781 229.156C195.719 228.719 195.656 228.281 195.594 227.844C195.344 227.594 195.156 227.344 195.031 227.094C194.906 226.781 194.75 226.5 194.562 226.25C194.062 225.625 193.781 225.25 193.719 225.125C193.719 225 193.656 224.875 193.531 224.75L192.125 223.25C192 223.062 191.875 222.938 191.75 222.875C191.688 222.75 191.594 222.562 191.469 222.312C191.281 221.938 191 221.625 190.625 221.375C190.188 220.875 189.969 220.625 189.969 220.625C189.969 220.562 189.938 220.5 189.875 220.438C189.375 219.938 189.094 219.656 189.031 219.594C188.844 218.844 188.719 218.406 188.656 218.281C188.406 217.969 188.25 217.719 188.188 217.531C188.188 217.281 188.125 217.094 188 216.969C187.875 216.781 187.719 216.594 187.531 216.406C187.406 216.219 187.281 216.031 187.156 215.844C186.906 215.219 186.75 214.844 186.688 214.719C186.625 214.594 186.594 214.469 186.594 214.344C186.406 214.031 186.25 213.812 186.125 213.688C186.062 213.562 186 213.438 185.938 213.312C185.812 212.625 185.719 212.25 185.656 212.188C185.594 212.125 185.531 212.031 185.469 211.906C185.094 210.969 184.781 210.281 184.531 209.844C184.594 209.344 184.531 208.875 184.344 208.438C184.219 208 184.219 207.625 184.344 207.312C184.156 207 184.062 206.594 184.062 206.094C184.125 205.531 184.25 205.094 184.438 204.781C184.438 204.281 184.438 203.875 184.438 203.562C184.5 203.188 184.656 202.906 184.906 202.719C184.906 202.406 185.062 202.031 185.375 201.594C185.688 201.156 185.938 200.844 186.125 200.656C186.5 200.156 186.688 199.875 186.688 199.812C186.75 199.688 186.844 199.562 186.969 199.438C187.344 198.75 187.594 198.281 187.719 198.031C187.906 197.594 188.062 197.375 188.188 197.375C188.312 197.375 188.438 197.344 188.562 197.281C189.062 196.781 189.406 196.344 189.594 195.969C189.844 195.594 190.188 195.312 190.625 195.125L191.188 194.188C192.25 193.625 192.844 193.219 192.969 192.969C193.406 192.844 193.719 192.719 193.906 192.594C194.094 192.469 194.312 192.312 194.562 192.125C195.062 191.688 195.344 191.469 195.406 191.469C195.469 191.406 195.562 191.344 195.688 191.281C195.812 191.219 196 191.156 196.25 191.094C196.5 190.969 196.719 190.844 196.906 190.719L197.844 190.25C198.531 190.062 199 189.844 199.25 189.594C199.75 189.469 200.156 189.406 200.469 189.406C201.219 189.344 201.594 189.344 201.594 189.406C201.656 189.469 201.75 189.5 201.875 189.5H202.531Z" fill="white"/>
<path d="M237.125 191.938C237.5 192 237.844 192.031 238.156 192.031C238.531 192.031 238.875 191.969 239.188 191.844C239.875 192.031 240.25 192.125 240.312 192.125C240.438 192.062 240.562 192.031 240.688 192.031C241.25 192.031 241.594 192 241.719 191.938C241.844 191.875 241.969 191.844 242.094 191.844C242.781 192.094 243.281 192.219 243.594 192.219C243.969 192.156 244.281 192.188 244.531 192.312C244.969 192.938 245.219 193.312 245.281 193.438C245.344 193.5 245.375 193.594 245.375 193.719C245.188 194.469 245.094 194.938 245.094 195.125C245.094 195.312 245.156 195.469 245.281 195.594C245.156 196.031 245.125 196.469 245.188 196.906C245.25 197.344 245.281 197.812 245.281 198.312C245.281 198.438 245.25 198.625 245.188 198.875C245.188 199.062 245.188 199.312 245.188 199.625C245.188 200.375 245.188 200.906 245.188 201.219C245.25 201.531 245.281 202.031 245.281 202.719C245.219 203.719 245.188 204.438 245.188 204.875C245.25 205.25 245.188 205.594 245 205.906C244.562 206.469 244.219 206.781 243.969 206.844C243.719 206.906 243.438 207 243.125 207.125C242.125 206.938 241.312 206.875 240.688 206.938C240.062 206.938 239.469 206.938 238.906 206.938C238.156 206.938 237.688 206.969 237.5 207.031C237.375 207.094 237.25 207.062 237.125 206.938C237 207.375 236.906 207.812 236.844 208.25C236.844 208.688 236.812 209.125 236.75 209.562C236.75 210.062 236.719 210.562 236.656 211.062C236.656 211.5 236.719 211.938 236.844 212.375L236.75 214.531C236.812 215.219 236.812 215.594 236.75 215.656C236.75 215.719 236.75 215.812 236.75 215.938C236.75 216.688 236.781 217.094 236.844 217.156C236.906 217.156 236.938 217.219 236.938 217.344C236.938 217.906 236.938 218.312 236.938 218.562C236.938 218.75 236.969 219 237.031 219.312C237.031 220.25 237.094 220.969 237.219 221.469C237.219 221.906 237.188 222.219 237.125 222.406C237.125 222.594 237.188 222.75 237.312 222.875L237.219 224.75L237.406 225.969C237.406 226.156 237.406 226.344 237.406 226.531C237.469 226.719 237.531 226.938 237.594 227.188L237.969 228.5C238.094 229.062 238.219 229.5 238.344 229.812C238.531 230.062 238.75 230.25 239 230.375C239.125 230.812 239.312 231.156 239.562 231.406C240.188 231.531 240.5 231.656 240.5 231.781C240.562 231.906 240.656 231.969 240.781 231.969C241.094 232.094 241.312 232.188 241.438 232.25C241.562 232.25 241.688 232.312 241.812 232.438C242 232.375 242.188 232.406 242.375 232.531C242.562 232.594 242.781 232.656 243.031 232.719C243.156 232.719 243.312 232.719 243.5 232.719C243.75 232.656 243.969 232.625 244.156 232.625C244.844 232.812 245.375 232.906 245.75 232.906C246.125 232.844 246.469 232.812 246.781 232.812H247.812C248 233.812 248.031 234.469 247.906 234.781C247.656 235.094 247.531 235.312 247.531 235.438C247.531 235.562 247.438 235.656 247.25 235.719C247.062 236.344 246.969 236.75 246.969 236.938C246.969 237.125 246.906 237.344 246.781 237.594C246.656 238.156 246.562 238.469 246.5 238.531C246.438 238.531 246.406 238.562 246.406 238.625C246.344 239.25 246.281 239.625 246.219 239.75C245.969 240.188 245.812 240.406 245.75 240.406C245.688 240.406 245.625 240.469 245.562 240.594C245.5 240.969 245.438 241.219 245.375 241.344C245.312 241.406 245.25 241.5 245.188 241.625C245 242.188 244.906 242.5 244.906 242.562C244.906 242.562 244.875 242.594 244.812 242.656C244.688 242.906 244.594 243.156 244.531 243.406C244.531 243.656 244.469 243.906 244.344 244.156C244.219 244.406 244.094 244.625 243.969 244.812C243.844 244.938 243.719 245.125 243.594 245.375C243.281 245.5 243.031 245.625 242.844 245.75C242.719 245.938 242.562 246.094 242.375 246.219C241.875 246.219 241.594 246.25 241.531 246.312C241.531 246.375 241.469 246.406 241.344 246.406C241.094 246.344 240.875 246.344 240.688 246.406C240.562 246.469 240.406 246.5 240.219 246.5C239.531 246.625 239.062 246.625 238.812 246.5C237.875 246.375 237.188 246.219 236.75 246.031C236.375 246.031 236.094 246 235.906 245.938C235.781 245.938 235.656 245.938 235.531 245.938C235.156 245.875 234.812 245.781 234.5 245.656C234.188 245.594 233.875 245.562 233.562 245.562C233.438 245.312 233.219 245.156 232.906 245.094C232.594 245.031 232.281 244.938 231.969 244.812C231.281 244.562 230.906 244.469 230.844 244.531C230.781 244.531 230.688 244.5 230.562 244.438C230.375 244.438 230.156 244.375 229.906 244.25C229.719 244.125 229.531 244 229.344 243.875C229.094 243.75 228.875 243.625 228.688 243.5C228.562 243.375 228.375 243.25 228.125 243.125C228 242.938 227.875 242.781 227.75 242.656C227.688 242.531 227.5 242.469 227.188 242.469C226.938 242.094 226.75 241.875 226.625 241.812C226.5 241.75 226.375 241.656 226.25 241.531C225.875 240.906 225.656 240.469 225.594 240.219C225.531 239.969 225.406 239.781 225.219 239.656C225.094 239.219 224.969 238.906 224.844 238.719C224.781 238.469 224.656 238.281 224.469 238.156C224.469 237.781 224.375 237.438 224.188 237.125C224 236.75 223.969 236.406 224.094 236.094C224.031 235.031 223.75 234.25 223.25 233.75C223.25 233.25 223.219 232.969 223.156 232.906C223.094 232.844 223.062 232.75 223.062 232.625C223.062 232.5 223.062 232.344 223.062 232.156C223.125 231.906 223.156 231.688 223.156 231.5C223.219 231.375 223.219 231.219 223.156 231.031C223.094 230.781 223.062 230.594 223.062 230.469C223.062 229.406 223.031 228.844 222.969 228.781C222.969 228.219 222.969 227.844 222.969 227.656C223.031 227.469 223.062 227.281 223.062 227.094V225.969C223 225.406 222.938 224.969 222.875 224.656C222.875 224.344 222.844 224.031 222.781 223.719V222.688C222.781 222.5 222.75 222.344 222.688 222.219C222.625 222.031 222.594 221.844 222.594 221.656C222.781 221.031 222.844 220.625 222.781 220.438C222.719 220.188 222.656 219.906 222.594 219.594C222.594 218.969 222.594 218.531 222.594 218.281C222.656 217.969 222.656 217.719 222.594 217.531C222.594 216.656 222.562 215.844 222.5 215.094C222.5 214.344 222.531 213.562 222.594 212.75C222.656 212.125 222.656 211.781 222.594 211.719C222.594 211.594 222.594 211.469 222.594 211.344C222.594 210.844 222.594 210.344 222.594 209.844C222.656 209.344 222.625 208.844 222.5 208.344C222.625 208.156 222.656 207.938 222.594 207.688C222.531 207.375 222.562 207.062 222.688 206.75C222.562 206.688 222.375 206.656 222.125 206.656C221.875 206.594 221.688 206.625 221.562 206.75C221.188 206.625 220.875 206.594 220.625 206.656C220.375 206.719 220.188 206.75 220.062 206.75C219.375 206.812 218.938 206.844 218.75 206.844C218.625 206.844 218.5 206.938 218.375 207.125C218.25 207 218.062 206.969 217.812 207.031C217.625 207.031 217.469 206.969 217.344 206.844C216.781 206.531 216.438 206.375 216.312 206.375C216.188 206.375 216.062 206.344 215.938 206.281C215.812 205.656 215.656 205.25 215.469 205.062C215.344 204.812 215.25 204.531 215.188 204.219C215.188 204.094 215.156 203.938 215.094 203.75C215.094 203.5 215.125 203.312 215.188 203.188C215.25 202.812 215.25 202.562 215.188 202.438C215.125 202.312 215.062 202.188 215 202.062C214.938 201.375 214.906 200.938 214.906 200.75C214.969 200.562 215 200.344 215 200.094C214.938 199.781 214.906 199.594 214.906 199.531C214.969 199.406 215 199.25 215 199.062C215 198.562 214.969 198.281 214.906 198.219C214.844 198.094 214.844 197.969 214.906 197.844C214.844 197.219 214.844 196.844 214.906 196.719C214.969 196.469 214.969 196.125 214.906 195.688C214.906 195.188 214.906 194.781 214.906 194.469C214.969 193.844 214.969 193.375 214.906 193.062C214.844 192.75 214.875 192.469 215 192.219C215.625 191.531 215.938 191.156 215.938 191.094C216.688 191.219 217.125 191.281 217.25 191.281C217.438 191.281 217.625 191.344 217.812 191.469C218.188 191.656 218.469 191.75 218.656 191.75C218.906 191.688 219.125 191.75 219.312 191.938C219.875 191.812 220.406 191.812 220.906 191.938C221.469 192.062 222.031 192.062 222.594 191.938C222.656 191.625 222.656 191.312 222.594 191C222.531 190.688 222.531 190.438 222.594 190.25C222.531 189.812 222.5 189.281 222.5 188.656C222.562 188.031 222.594 187.5 222.594 187.062C222.469 186.375 222.406 186.031 222.406 186.031C222.469 185.969 222.5 185.906 222.5 185.844C222.438 185.094 222.375 184.688 222.312 184.625C222.312 184.188 222.219 183.781 222.031 183.406C221.969 183.281 221.938 183.125 221.938 182.938C221.938 182.688 221.938 182.5 221.938 182.375C221.75 182.062 221.656 181.844 221.656 181.719C221.719 181.531 221.688 181.344 221.562 181.156C221.625 180.906 221.625 180.688 221.562 180.5C221.5 180.25 221.469 180.031 221.469 179.844C221.469 179.219 221.438 178.844 221.375 178.719C221.375 178.594 221.375 178.469 221.375 178.344C221.375 178.031 221.406 177.75 221.469 177.5C221.594 177.25 221.688 176.969 221.75 176.656C221.5 176.094 221.406 175.75 221.469 175.625C221.531 175.5 221.531 175.344 221.469 175.156C221.719 174.906 221.969 174.719 222.219 174.594C222.531 174.406 222.812 174.188 223.062 173.938C223.312 174 223.562 174 223.812 173.938C224.062 173.875 224.312 173.844 224.562 173.844C225.312 173.844 225.719 173.844 225.781 173.844C225.906 173.781 226.031 173.75 226.156 173.75L227.562 173.844C227.75 173.844 227.938 173.875 228.125 173.938C228.312 173.938 228.469 173.906 228.594 173.844C229.344 173.719 229.781 173.688 229.906 173.75C230.094 173.75 230.25 173.719 230.375 173.656H231.875C232.312 173.719 232.719 173.75 233.094 173.75C233.531 173.75 233.969 173.781 234.406 173.844C234.656 173.844 234.875 173.875 235.062 173.938C235.312 174 235.594 174 235.906 173.938C236.531 174.25 236.875 174.438 236.938 174.5C237.062 174.562 237.125 174.688 237.125 174.875C237.688 175.25 237.938 175.469 237.875 175.531C237.875 175.594 237.906 175.656 237.969 175.719C238.156 175.844 238.25 176.031 238.25 176.281C238.312 176.531 238.312 176.719 238.25 176.844C238.125 177.594 238.094 178.031 238.156 178.156C238.219 178.281 238.25 178.406 238.25 178.531C238.188 179.219 238.156 179.625 238.156 179.75C238.219 179.875 238.25 180 238.25 180.125C238.188 180.375 238.125 180.625 238.062 180.875C238 181.125 237.938 181.375 237.875 181.625C237.938 182.25 237.938 182.688 237.875 182.938C237.812 183.125 237.781 183.281 237.781 183.406C237.781 183.969 237.75 184.281 237.688 184.344C237.625 184.406 237.594 184.5 237.594 184.625C237.531 185.125 237.5 185.656 237.5 186.219C237.5 186.719 237.5 187.281 237.5 187.906C237.438 188.219 237.375 188.531 237.312 188.844C237.25 189.156 237.219 189.406 237.219 189.594C237.156 190.344 237.125 190.844 237.125 191.094C237.188 191.344 237.188 191.625 237.125 191.938Z" fill="white"/>
<path d="M267.125 183.781C267 183.719 266.812 183.75 266.562 183.875C266.375 183.938 266.219 183.969 266.094 183.969C265.406 183.906 264.969 183.906 264.781 183.969C264.594 184.031 264.438 184.062 264.312 184.062C264.125 184.062 263.938 184.031 263.75 183.969C263.562 183.906 263.344 183.875 263.094 183.875L261.688 184.062H260.094C259.906 184 259.719 183.938 259.531 183.875C259.344 183.812 259.156 183.781 258.969 183.781C258.656 183.781 258.406 183.844 258.219 183.969C258.031 184.031 257.812 184.031 257.562 183.969C257 184.094 256.562 184.188 256.25 184.25C255.938 184.312 255.625 184.281 255.312 184.156C254.562 183.969 254.156 183.844 254.094 183.781C254.094 183.656 254.031 183.562 253.906 183.5C253.531 183.188 253.344 183 253.344 182.938C253.406 182.812 253.406 182.688 253.344 182.562C253.219 182 253.156 181.5 253.156 181.062C253.219 180.562 253.219 180.062 253.156 179.562C253.156 179.25 253.125 178.969 253.062 178.719C253 178.469 252.938 178.219 252.875 177.969C252.75 177.281 252.656 176.844 252.594 176.656C252.781 176.219 252.875 175.719 252.875 175.156C253.375 174.594 253.656 174.25 253.719 174.125C253.781 174 253.938 173.906 254.188 173.844C254.625 173.594 254.875 173.5 254.938 173.562C255 173.562 255.156 173.594 255.406 173.656C255.969 173.531 256.344 173.469 256.531 173.469C256.719 173.406 256.906 173.375 257.094 173.375C257.656 173.375 257.969 173.375 258.031 173.375C258.156 173.312 258.281 173.281 258.406 173.281C258.906 173.281 259.188 173.312 259.25 173.375C259.375 173.375 259.5 173.375 259.625 173.375C259.938 173.438 260.219 173.469 260.469 173.469C260.719 173.406 260.969 173.375 261.219 173.375C261.406 173.375 261.594 173.406 261.781 173.469C261.969 173.531 262.125 173.562 262.25 173.562C262.562 173.5 262.781 173.5 262.906 173.562C263.031 173.625 263.156 173.656 263.281 173.656C263.531 173.656 263.75 173.625 263.938 173.562C264.125 173.438 264.344 173.375 264.594 173.375C265.281 173.5 265.719 173.562 265.906 173.562C266.094 173.562 266.344 173.594 266.656 173.656C266.781 173.969 267.031 174.25 267.406 174.5C267.656 175.188 267.75 175.531 267.688 175.531C267.688 175.531 267.688 175.562 267.688 175.625C267.812 176.562 267.844 177.25 267.781 177.688C267.719 178.062 267.75 178.469 267.875 178.906C267.75 179.031 267.688 179.219 267.688 179.469C267.75 179.656 267.781 179.875 267.781 180.125C267.781 180.312 267.75 180.531 267.688 180.781C267.625 180.969 267.594 181.156 267.594 181.344C267.719 182.531 267.562 183.344 267.125 183.781ZM253.812 244.344C253.688 243.406 253.625 242.625 253.625 242C253.625 241.375 253.688 240.75 253.812 240.125C253.75 239.938 253.719 239.75 253.719 239.562C253.781 239.375 253.812 239.219 253.812 239.094C254.062 238.531 254.188 238.156 254.188 237.969L254.375 236.281C254.375 236.094 254.375 235.938 254.375 235.812C254.438 235.625 254.469 235.438 254.469 235.25C254.406 234.562 254.375 234.188 254.375 234.125L254.656 231.594C254.719 231.031 254.719 230.469 254.656 229.906C254.656 229.344 254.656 228.781 254.656 228.219C254.656 227.594 254.625 227.281 254.562 227.281C254.5 227.219 254.469 227.156 254.469 227.094C254.406 226.344 254.375 225.719 254.375 225.219C254.25 224.406 254.25 223.719 254.375 223.156C254.625 222.531 254.656 222.094 254.469 221.844C254.281 221.219 254.156 220.438 254.094 219.5C254.031 218.938 254 218.562 254 218.375C254 218.125 253.969 217.875 253.906 217.625C253.781 216.875 253.75 216.406 253.812 216.219C253.875 216.031 253.906 215.875 253.906 215.75C253.906 215.5 253.875 215.25 253.812 215C253.812 214.75 253.875 214.469 254 214.156C254.062 213.906 254.031 213.469 253.906 212.844C253.906 212.531 253.906 212.031 253.906 211.344C253.906 210.656 253.875 210.094 253.812 209.656C253.75 208.906 253.719 208.5 253.719 208.438C253.781 208.375 253.812 208.312 253.812 208.25C253.625 207.625 253.531 207.188 253.531 206.938C253.594 206.688 253.594 206.438 253.531 206.188C253.531 205.562 253.469 205.031 253.344 204.594L253.25 203.469C253.188 203.156 253.125 202.906 253.062 202.719C253 202.469 252.938 202.188 252.875 201.875C252.75 201.125 252.688 200.719 252.688 200.656C252.75 200.594 252.75 200.5 252.688 200.375C252.812 200.188 252.812 199.906 252.688 199.531C252.562 199.156 252.5 198.844 252.5 198.594C252.438 197.969 252.406 197.594 252.406 197.469C252.406 197.281 252.406 197.094 252.406 196.906C252.469 196.656 252.5 196.375 252.5 196.062C252.438 195.688 252.406 195.281 252.406 194.844C252.406 194.344 252.469 193.844 252.594 193.344C252.719 193.219 252.875 193.094 253.062 192.969C253.312 192.844 253.531 192.719 253.719 192.594C254.219 192.469 254.531 192.438 254.656 192.5C254.781 192.5 254.906 192.5 255.031 192.5C255.781 192.375 256.406 192.25 256.906 192.125C257.281 192.25 257.719 192.312 258.219 192.312C258.719 192.25 259.156 192.219 259.531 192.219C259.844 192.094 260.156 192.062 260.469 192.125C260.781 192.188 261.125 192.188 261.5 192.125C262.25 192.188 262.625 192.219 262.625 192.219C263.188 192.094 263.469 192.062 263.469 192.125C263.531 192.125 263.625 192.125 263.75 192.125C264.438 192.062 264.75 192.031 264.688 192.031C264.625 191.969 264.656 192 264.781 192.125C265.406 192.25 265.812 192.375 266 192.5C266.188 192.625 266.438 192.719 266.75 192.781C267.125 193.469 267.312 193.906 267.312 194.094C267.375 194.281 267.438 194.531 267.5 194.844C267.5 195.031 267.469 195.219 267.406 195.406C267.406 195.531 267.438 195.688 267.5 195.875C267.562 196.375 267.562 196.656 267.5 196.719C267.5 196.781 267.5 196.875 267.5 197C267.562 197.125 267.562 197.312 267.5 197.562C267.5 197.75 267.5 197.938 267.5 198.125C267.562 198.438 267.625 198.75 267.688 199.062C267.812 199.375 267.844 199.625 267.781 199.812C267.719 200.062 267.75 200.469 267.875 201.031C267.875 201.344 267.844 201.625 267.781 201.875C267.781 202.125 267.844 202.406 267.969 202.719C267.844 203.094 267.812 203.5 267.875 203.938C267.938 204.312 267.938 204.719 267.875 205.156C267.875 205.406 267.844 205.656 267.781 205.906C267.781 206.094 267.781 206.312 267.781 206.562C267.719 206.875 267.656 207.156 267.594 207.406C267.594 207.594 267.594 207.812 267.594 208.062C267.594 208.25 267.625 208.469 267.688 208.719C267.75 208.969 267.781 209.188 267.781 209.375C267.719 210.312 267.656 211.188 267.594 212C267.594 212.75 267.562 213.469 267.5 214.156C267.5 214.531 267.5 214.906 267.5 215.281C267.5 215.594 267.438 215.875 267.312 216.125C267.312 216.5 267.281 216.812 267.219 217.062C267.219 217.25 267.219 217.406 267.219 217.531C267.219 218.594 267.25 219.5 267.312 220.25C267.375 221 267.406 221.75 267.406 222.5C267.406 223 267.375 223.438 267.312 223.812C267.25 224.188 267.25 224.594 267.312 225.031C267.5 225.781 267.562 226.281 267.5 226.531C267.5 226.781 267.531 227.062 267.594 227.375C267.656 228 267.688 228.438 267.688 228.688C267.75 228.938 267.781 229.312 267.781 229.812C267.781 230.438 267.781 230.969 267.781 231.406C267.844 231.781 268 232.125 268.25 232.438C268.125 232.75 268.094 233.062 268.156 233.375C268.219 233.688 268.25 234 268.25 234.312C268.312 234.5 268.312 234.688 268.25 234.875C268.188 235.062 268.188 235.25 268.25 235.438C268.25 235.562 268.25 235.75 268.25 236C268.312 236.188 268.344 236.344 268.344 236.469C268.469 237.156 268.531 237.531 268.531 237.594C268.531 237.594 268.562 237.656 268.625 237.781C268.688 239.094 268.812 239.969 269 240.406C269 240.719 269.062 241.125 269.188 241.625C269.312 242.375 269.375 242.875 269.375 243.125C269.438 243.312 269.438 243.562 269.375 243.875C268.938 244.438 268.719 244.719 268.719 244.719C268.156 245.281 267.688 245.562 267.312 245.562C266.562 245.75 266.062 245.812 265.812 245.75C265.625 245.75 265.438 245.812 265.25 245.938C264.75 245.938 264.469 245.906 264.406 245.844C264.406 245.844 264.344 245.844 264.219 245.844C263.531 245.719 263.094 245.656 262.906 245.656C262.156 245.781 261.75 245.812 261.688 245.75C261.625 245.688 261.531 245.656 261.406 245.656C260.781 245.719 260.375 245.719 260.188 245.656C260 245.656 259.812 245.656 259.625 245.656C259 245.844 258.594 245.906 258.406 245.844C258.219 245.844 258.062 245.844 257.938 245.844C257.438 245.844 257.031 245.844 256.719 245.844C256.406 245.906 256.094 245.875 255.781 245.75C255.406 245.75 255.062 245.656 254.75 245.469C254.312 245.031 254.062 244.812 254 244.812C254 244.812 253.969 244.781 253.906 244.719L253.812 244.344Z" fill="white"/>
<path d="M288.219 189.781C288.281 190.094 288.344 190.344 288.406 190.531C288.531 190.719 288.688 190.844 288.875 190.906C289 191.469 289.062 191.812 289.062 191.938C289.125 192 289.219 192.031 289.344 192.031L289.438 193.344C289.5 193.594 289.562 193.844 289.625 194.094C289.688 194.281 289.75 194.5 289.812 194.75C290 195.625 290.094 196.312 290.094 196.812C290.156 197.25 290.25 197.688 290.375 198.125C290.688 198.875 290.844 199.438 290.844 199.812C290.906 200.188 291 200.5 291.125 200.75C291.25 201.312 291.312 201.625 291.312 201.688C291.312 201.75 291.312 201.875 291.312 202.062C291.438 202.25 291.531 202.438 291.594 202.625C291.719 202.812 291.719 203.062 291.594 203.375C291.719 203.625 291.781 203.875 291.781 204.125C291.781 204.375 291.812 204.656 291.875 204.969C292.125 205.594 292.25 206 292.25 206.188C292.25 206.312 292.281 206.438 292.344 206.562C292.531 207.125 292.625 207.5 292.625 207.688C292.688 207.812 292.719 207.969 292.719 208.156C292.781 208.344 292.812 208.531 292.812 208.719C292.812 208.906 292.844 209.125 292.906 209.375C292.906 209.5 293.031 209.875 293.281 210.5C293.406 211.25 293.531 211.844 293.656 212.281C293.719 212.781 293.875 213.156 294.125 213.406C294.062 213.656 294.062 213.938 294.125 214.25C294.188 214.562 294.25 214.906 294.312 215.281C294.375 215.719 294.469 216.062 294.594 216.312C294.719 216.562 294.844 216.812 294.969 217.062C295.344 217.938 295.562 218.5 295.625 218.75C295.75 219 295.812 219.281 295.812 219.594C295.938 219.969 296.031 220.25 296.094 220.438C296.219 220.562 296.312 220.688 296.375 220.812C296.438 221.125 296.469 221.406 296.469 221.656C296.531 221.906 296.656 222.094 296.844 222.219C296.844 222.969 296.875 223.406 296.938 223.531C297 223.594 297.062 223.688 297.125 223.812C297.625 223.375 297.875 223.188 297.875 223.25C297.875 223.25 297.906 223.219 297.969 223.156C298.219 222.719 298.312 222.469 298.25 222.406C298.25 222.281 298.312 222.156 298.438 222.031C298.562 221.344 298.656 220.938 298.719 220.812C298.781 220.625 298.844 220.375 298.906 220.062C298.969 219.5 299 219.156 299 219.031C299.062 218.906 299.094 218.781 299.094 218.656C299.344 217.906 299.469 217.438 299.469 217.25C299.531 217 299.625 216.781 299.75 216.594C299.875 216.219 299.938 215.938 299.938 215.75C299.938 215.562 300 215.406 300.125 215.281C300.25 214.719 300.312 214.375 300.312 214.25C300.312 214.062 300.375 213.938 300.5 213.875C300.562 213.562 300.625 213.312 300.688 213.125C300.75 212.875 300.812 212.625 300.875 212.375C300.938 211.312 301 210.656 301.062 210.406C301.375 209.531 301.562 208.781 301.625 208.156C301.75 207.531 301.875 206.875 302 206.188C302.125 205.375 302.156 204.906 302.094 204.781C302.094 204.594 302.094 204.438 302.094 204.312C302.219 203.812 302.312 203.5 302.375 203.375C302.438 203.25 302.406 203.094 302.281 202.906C302.531 202.469 302.625 202 302.562 201.5C302.562 201 302.625 200.531 302.75 200.094C302.938 199.406 303.031 199.031 303.031 198.969C303.094 198.906 303.188 198.812 303.312 198.688L303.406 196.719C303.719 196.219 303.875 195.906 303.875 195.781C303.875 195.594 303.969 195.438 304.156 195.312C304.031 194.812 304 194.344 304.062 193.906C304.188 193.406 304.188 193.031 304.062 192.781C304.188 192.656 304.25 192.469 304.25 192.219C304.312 191.969 304.406 191.781 304.531 191.656C304.594 191.344 304.656 191.094 304.719 190.906C304.781 190.719 304.906 190.625 305.094 190.625C305.406 190.375 305.625 190.219 305.75 190.156C305.875 190.094 306 190.062 306.125 190.062C306.5 190 306.719 189.938 306.781 189.875C306.906 189.812 307.031 189.781 307.156 189.781C307.719 189.844 308.188 189.812 308.562 189.688C309 189.75 309.312 189.844 309.5 189.969C309.688 190.094 309.875 190.094 310.062 189.969C310.562 190.156 310.875 190.344 311 190.531C311.312 190.406 311.594 190.469 311.844 190.719C312.156 190.969 312.406 191.031 312.594 190.906C313.281 191.344 313.688 191.594 313.812 191.656C313.938 191.719 314.062 191.781 314.188 191.844C314.812 192.094 315.219 192.25 315.406 192.312C315.594 192.312 315.75 192.344 315.875 192.406C316.25 192.469 316.625 192.625 317 192.875C317.562 192.938 317.969 193.094 318.219 193.344C318.844 193.594 319.156 193.75 319.156 193.812C319.156 193.875 319.25 193.875 319.438 193.812C319.562 194.125 319.719 194.375 319.906 194.562C320.094 194.75 320.156 195.094 320.094 195.594C319.781 196.281 319.562 196.781 319.438 197.094C319.375 197.406 319.281 197.625 319.156 197.75C319.031 198.438 318.938 198.812 318.875 198.875C318.812 198.875 318.75 198.938 318.688 199.062C318.5 199.375 318.375 199.625 318.312 199.812C318.25 200 318.188 200.125 318.125 200.188C318 200.562 317.875 201 317.75 201.5C317.625 201.938 317.5 202.375 317.375 202.812C317.25 203.25 317.125 203.594 317 203.844C316.875 204.031 316.75 204.25 316.625 204.5C316.375 205.188 316.188 205.656 316.062 205.906C315.938 206.094 315.844 206.281 315.781 206.469C315.781 206.656 315.719 206.812 315.594 206.938C315.406 207.375 315.312 207.812 315.312 208.25C314.875 208.812 314.656 209.125 314.656 209.188L314.469 210.219L314.094 211.25C313.969 211.375 313.844 211.531 313.719 211.719C313.656 211.844 313.656 212.031 313.719 212.281C313.406 213.031 313.219 213.438 313.156 213.5C313.156 213.562 313.125 213.656 313.062 213.781C312.875 214.406 312.75 214.781 312.688 214.906C312.438 215.594 312.281 215.969 312.219 216.031C312.094 216.219 311.969 216.531 311.844 216.969C311.781 217.344 311.688 217.688 311.562 218C311.375 218.375 311.25 218.688 311.188 218.938C311.125 219.125 311.062 219.312 311 219.5C310.938 219.688 310.875 219.875 310.812 220.062C310.812 220.188 310.781 220.375 310.719 220.625C310.656 220.812 310.562 221.031 310.438 221.281C310.375 221.469 310.375 221.719 310.438 222.031C310.125 222.281 310 222.625 310.062 223.062C309.875 223.562 309.719 223.938 309.594 224.188C309.531 224.438 309.438 224.719 309.312 225.031C309.125 225.719 308.969 226.125 308.844 226.25C308.781 226.375 308.812 226.5 308.938 226.625C308.688 227.188 308.5 227.594 308.375 227.844C308.312 228.031 308.25 228.281 308.188 228.594C307.938 229.219 307.781 229.656 307.719 229.906C307.656 230.094 307.594 230.25 307.531 230.375C307.406 231.062 307.344 231.406 307.344 231.406L306.688 232.812L306.219 233.938C306.156 234.188 306.094 234.406 306.031 234.594C306.031 234.781 306 235.031 305.938 235.344C305.75 235.781 305.656 236.031 305.656 236.094C305.719 236.156 305.75 236.25 305.75 236.375C305.5 236.875 305.312 237.312 305.188 237.688C305.125 238 305.031 238.312 304.906 238.625C304.844 238.875 304.812 239.062 304.812 239.188C304.812 239.312 304.781 239.531 304.719 239.844C304.531 240.594 304.406 241.094 304.344 241.344C304.281 241.531 304.281 241.781 304.344 242.094C304.094 242.969 303.875 243.5 303.688 243.688C303.5 243.875 303.375 244.062 303.312 244.25C303.312 244.375 303.25 244.5 303.125 244.625C302.875 245.188 302.781 245.469 302.844 245.469C302.969 245.469 303 245.531 302.938 245.656C302.562 246.156 302.156 246.469 301.719 246.594C301.344 246.781 300.938 246.938 300.5 247.062C300.062 247.188 299.812 247.281 299.75 247.344C299.688 247.469 299.594 247.531 299.469 247.531C298.781 247.531 298.312 247.594 298.062 247.719C297.812 247.719 297.531 247.75 297.219 247.812C296.906 247.875 296.562 247.906 296.188 247.906C296 247.844 295.656 247.812 295.156 247.812C294.469 247.688 294.031 247.562 293.844 247.438C293.094 247.062 292.625 246.781 292.438 246.594C292.25 246.406 292.094 246.156 291.969 245.844C291.344 245.281 290.969 244.906 290.844 244.719C290.531 243.969 290.375 243.531 290.375 243.406C290.375 243.281 290.344 243.125 290.281 242.938C290.094 242.375 290 241.875 290 241.438C289.812 240.812 289.656 240.312 289.531 239.938C289.281 239.438 289.156 239.125 289.156 239C289.156 238.875 289.156 238.75 289.156 238.625C288.969 238.062 288.812 237.594 288.688 237.219C288.5 236.781 288.375 236.438 288.312 236.188C288.312 235.938 288.25 235.656 288.125 235.344L287.75 234.031C287.5 233.594 287.344 233.25 287.281 233C287.281 232.75 287.219 232.5 287.094 232.25C287.031 232 286.875 231.688 286.625 231.312C286.5 231.062 286.406 230.844 286.344 230.656C286.281 230.406 286.188 230.219 286.062 230.094C285.938 229.781 285.812 229.469 285.688 229.156C285.625 228.844 285.531 228.531 285.406 228.219C285.219 227.594 285.094 227.188 285.031 227C284.969 226.75 284.875 226.562 284.75 226.438C284.75 226 284.688 225.75 284.562 225.688C284.438 225.562 284.438 225.438 284.562 225.312C284.25 224.438 284.094 223.969 284.094 223.906C283.906 223.469 283.781 223.188 283.719 223.062C283.656 222.875 283.594 222.719 283.531 222.594C283.406 221.844 283.312 221.406 283.25 221.281C283.188 221.156 283.125 221.031 283.062 220.906C282.688 220.094 282.406 219.438 282.219 218.938C282.156 218.625 282.062 218.406 281.938 218.281C281.812 218.094 281.719 217.906 281.656 217.719C281.594 217.094 281.531 216.688 281.469 216.5C281.406 216.312 281.344 216.125 281.281 215.938C281.031 215.5 280.906 215.25 280.906 215.188C280.969 215.125 280.938 215.031 280.812 214.906C280.812 214.594 280.781 214.375 280.719 214.25C280.719 214.062 280.688 213.906 280.625 213.781C280.375 213.156 280.25 212.812 280.25 212.75C280.312 212.688 280.312 212.625 280.25 212.562C280.062 212.188 279.969 211.938 279.969 211.812C279.969 211.625 279.938 211.469 279.875 211.344C279.562 210.406 279.375 209.875 279.312 209.75C279.188 209.5 279.062 209.281 278.938 209.094C278.812 208.906 278.781 208.719 278.844 208.531C278.594 208.031 278.406 207.719 278.281 207.594C277.969 206.906 277.812 206.562 277.812 206.562C277.688 205.812 277.594 205.406 277.531 205.344C277.469 205.219 277.406 205.094 277.344 204.969C277.156 204.531 276.938 204.094 276.688 203.656C276.438 203.031 276.281 202.688 276.219 202.625C276.156 202.5 276.094 202.375 276.031 202.25C275.906 202 275.812 201.781 275.75 201.594C275.688 201.344 275.625 201.062 275.562 200.75C275.125 199.875 274.812 199.312 274.625 199.062C274.25 198.312 274 197.844 273.875 197.656C273.75 197.406 273.562 197.219 273.312 197.094C273.125 196.781 272.938 196.469 272.75 196.156C272.562 195.844 272.406 195.531 272.281 195.219C272.281 194.531 272.344 194.188 272.469 194.188C272.531 194.188 272.562 194.125 272.562 194C273.062 193.438 273.312 193.156 273.312 193.156L274.25 192.5C275 192.312 275.5 192.188 275.75 192.125C276.062 192.062 276.188 191.906 276.125 191.656C276.938 191.719 277.469 191.688 277.719 191.562C277.969 191.438 278.188 191.406 278.375 191.469C279.188 191.281 279.688 191.094 279.875 190.906C280.188 191.031 280.406 191.062 280.531 191C280.656 190.875 280.781 190.812 280.906 190.812C281.094 190.75 281.281 190.719 281.469 190.719C281.719 190.719 281.906 190.625 282.031 190.438C282.406 190.5 282.781 190.469 283.156 190.344C283.594 190.219 283.969 190.094 284.281 189.969C284.969 189.719 285.406 189.625 285.594 189.688C285.781 189.688 285.938 189.656 286.062 189.594C286.562 189.469 286.875 189.406 287 189.406C287.125 189.344 287.25 189.312 287.375 189.312L288.219 189.781Z" fill="white"/>
<path d="M321.781 214.719C322.031 214.031 322.156 213.469 322.156 213.031C322.156 212.594 322.25 212.25 322.438 212V210.781C322.75 210.031 322.906 209.562 322.906 209.375C323.031 208.688 323.094 208.312 323.094 208.25C323.094 208.125 323.125 208 323.188 207.875C323.25 207.625 323.375 207.219 323.562 206.656C323.812 205.906 324 205.375 324.125 205.062C324.25 204.75 324.375 204.469 324.5 204.219C324.812 203.719 324.969 203.406 324.969 203.281C324.969 203.156 325.031 203.031 325.156 202.906C325.281 202.719 325.438 202.531 325.625 202.344C325.812 202.094 325.906 201.812 325.906 201.5C326.406 200.875 326.844 200.5 327.219 200.375C327.469 199.75 327.688 199.406 327.875 199.344C328.062 199.219 328.125 199 328.062 198.688C328.312 198.562 328.5 198.438 328.625 198.312C328.75 198.125 328.969 197.969 329.281 197.844C329.531 197.281 329.656 196.969 329.656 196.906C329.719 196.844 329.812 196.781 329.938 196.719C330.125 196.594 330.312 196.438 330.5 196.25C330.688 196.062 330.875 195.875 331.062 195.688C331.562 195.375 331.906 195.219 332.094 195.219C332.719 194.781 333.188 194.5 333.5 194.375C333.812 194.25 334.031 194.031 334.156 193.719C334.406 193.719 334.594 193.688 334.719 193.625C334.906 193.562 335.094 193.5 335.281 193.438C335.906 193.125 336.25 192.938 336.312 192.875C336.438 192.812 336.531 192.781 336.594 192.781C336.719 192.656 336.875 192.531 337.062 192.406C337.25 192.281 337.406 192.156 337.531 192.031C337.906 192.031 338.25 191.938 338.562 191.75L339.688 191.562C340.312 191.312 340.656 191.219 340.719 191.281C340.844 191.344 341 191.344 341.188 191.281C341.625 191.219 341.906 191.156 342.031 191.094C342.156 190.969 342.281 190.875 342.406 190.812C342.906 190.75 343.469 190.656 344.094 190.531C344.344 190.469 344.531 190.406 344.656 190.344C344.844 190.281 345.062 190.219 345.312 190.156C345.812 190.219 346.219 190.219 346.531 190.156C346.844 190.094 347.156 190.062 347.469 190.062C347.719 190.062 347.969 190.094 348.219 190.156C348.469 190.219 348.719 190.281 348.969 190.344C349.406 190.344 349.781 190.344 350.094 190.344C350.469 190.344 350.875 190.375 351.312 190.438C351.562 190.625 351.812 190.781 352.062 190.906C352.375 190.969 352.688 191.062 353 191.188C353.75 191.5 354.281 191.781 354.594 192.031C355.344 192.219 355.906 192.438 356.281 192.688C356.906 193.062 357.281 193.281 357.406 193.344C357.531 193.406 357.656 193.438 357.781 193.438C358.594 193.875 359.188 194.219 359.562 194.469C359.938 194.781 360.219 195.031 360.406 195.219C360.531 195.344 360.656 195.438 360.781 195.5C360.969 195.562 361.156 195.656 361.344 195.781L362.188 197C362.5 197.312 362.688 197.531 362.75 197.656C362.812 197.719 362.906 197.719 363.031 197.656C363.344 198.156 363.5 198.469 363.5 198.594C363.562 198.656 363.656 198.719 363.781 198.781C364.281 199.469 364.531 199.844 364.531 199.906C364.906 200.531 365.125 200.938 365.188 201.125C365.312 201.25 365.438 201.438 365.562 201.688C365.75 202.312 365.875 202.719 365.938 202.906C366.062 203.094 366.156 203.281 366.219 203.469C366.406 203.781 366.5 204.031 366.5 204.219C366.562 204.406 366.688 204.531 366.875 204.594C366.812 204.906 366.844 205.219 366.969 205.531C367.094 205.844 367.219 206.125 367.344 206.375C367.344 206.625 367.406 207 367.531 207.5C367.656 208.25 367.719 208.719 367.719 208.906C367.781 209.094 367.812 209.25 367.812 209.375C368 209.75 368.062 210.031 368 210.219C368 210.344 368.031 210.5 368.094 210.688C368.094 210.938 368.125 211.156 368.188 211.344C368.25 211.531 368.312 211.719 368.375 211.906C368.5 212.969 368.5 214.156 368.375 215.469C368.312 215.906 368.25 216.25 368.188 216.5C368.188 216.75 368.125 217.062 368 217.438C367.375 217.688 366.938 217.875 366.688 218C366.25 218.312 365.875 218.469 365.562 218.469C365.25 218.469 365 218.625 364.812 218.938C364.312 218.812 364.031 218.812 363.969 218.938C363.969 219.062 363.906 219.125 363.781 219.125C363.094 219.375 362.688 219.5 362.562 219.5C362.438 219.5 362.344 219.562 362.281 219.688C362.031 219.625 361.781 219.656 361.531 219.781C361.344 219.906 361.125 220 360.875 220.062C360.062 220 359.344 220.094 358.719 220.344C358.219 220.469 357.719 220.625 357.219 220.812C356.781 220.938 356.312 221.062 355.812 221.188C355.312 221.438 354.875 221.562 354.5 221.562C353.875 221.938 353.438 222.156 353.188 222.219C352.938 222.219 352.719 222.281 352.531 222.406C352.156 222.594 351.719 222.781 351.219 222.969C350.719 223.094 350.219 223.125 349.719 223.062C349.594 223.188 349.438 223.25 349.25 223.25C349.125 223.188 348.938 223.188 348.688 223.25C348.062 223.5 347.75 223.656 347.75 223.719C347.75 223.719 347.719 223.719 347.656 223.719C347.344 223.844 347.031 223.938 346.719 224C346.406 224 346.094 224.062 345.781 224.188C345.594 224.312 345.312 224.406 344.938 224.469C344.625 224.531 344.344 224.656 344.094 224.844C343.906 224.781 343.719 224.812 343.531 224.938C343.344 225 343.125 225.062 342.875 225.125C342.562 224.938 342.344 224.875 342.219 224.938C342.094 224.938 341.969 224.906 341.844 224.844C341.594 224.594 341.375 224.469 341.188 224.469C341 224.406 340.844 224.344 340.719 224.281C340.281 223.844 340.031 223.531 339.969 223.344C339.844 223.219 339.688 223.062 339.5 222.875C339.375 222.688 339.25 222.531 339.125 222.406C339 222.094 338.812 221.844 338.562 221.656C338.375 221.469 338.219 221.219 338.094 220.906C337.594 220.469 337.344 220.125 337.344 219.875C336.906 219.25 336.656 218.906 336.594 218.844C336.594 218.781 336.594 218.688 336.594 218.562C336.344 218.25 336.094 217.938 335.844 217.625C335.594 217.312 335.406 216.906 335.281 216.406C334.969 217.156 334.812 217.656 334.812 217.906C334.875 218.156 334.906 218.406 334.906 218.656C334.969 219.219 335.094 219.656 335.281 219.969C335.156 220.094 335.125 220.281 335.188 220.531C335.25 220.719 335.281 220.938 335.281 221.188C335.344 221.562 335.375 221.844 335.375 222.031C335.375 222.156 335.406 222.281 335.469 222.406L335.656 223.531C336.031 224.344 336.219 224.844 336.219 225.031C336.281 225.156 336.344 225.281 336.406 225.406C336.844 225.906 337.125 226.312 337.25 226.625L337.719 227.656C338.219 228.344 338.5 228.75 338.562 228.875C339 229.375 339.344 229.75 339.594 230C340.406 230.625 340.844 231.062 340.906 231.312C341.531 231.562 341.938 231.812 342.125 232.062C342.5 232.188 342.719 232.281 342.781 232.344C342.906 232.406 343.031 232.469 343.156 232.531C343.281 232.656 343.438 232.75 343.625 232.812C343.812 232.875 343.969 232.969 344.094 233.094C344.406 233.156 344.75 233.188 345.125 233.188C345.875 233.375 346.438 233.469 346.812 233.469C347.25 233.406 347.625 233.438 347.938 233.562C348.438 233.562 348.938 233.5 349.438 233.375C349.75 233.25 349.969 233.188 350.094 233.188C350.219 233.188 350.344 233.125 350.469 233C350.844 232.938 351.062 232.906 351.125 232.906C351.25 232.844 351.375 232.781 351.5 232.719C352.062 232.406 352.375 232.25 352.438 232.25C352.5 232.188 352.594 232.094 352.719 231.969C353.406 231.719 353.75 231.594 353.75 231.594C354.188 231.281 354.438 231.062 354.5 230.938C354.562 230.75 354.656 230.594 354.781 230.469C355.219 230.156 355.469 230 355.531 230C355.656 229.938 355.719 229.844 355.719 229.719C356.219 229.531 356.469 229.438 356.469 229.438C356.531 229.375 356.625 229.375 356.75 229.438C357.188 229.312 357.438 229.281 357.5 229.344C357.625 229.344 357.719 229.375 357.781 229.438C357.969 229.562 358.156 229.719 358.344 229.906C358.531 230.031 358.75 230.156 359 230.281C359.375 230.719 359.594 231 359.656 231.125C359.719 231.188 359.812 231.25 359.938 231.312C360.25 231.938 360.406 232.25 360.406 232.25C360.719 232.688 360.906 232.938 360.969 233C361.094 233 361.188 233.062 361.25 233.188C361.5 233.812 361.656 234.156 361.719 234.219C361.781 234.219 361.875 234.281 362 234.406C362.188 234.781 362.344 235.031 362.469 235.156C362.656 235.281 362.812 235.438 362.938 235.625C363.125 235.75 363.25 235.906 363.312 236.094C363.438 236.219 363.594 236.344 363.781 236.469C364.031 237.281 364.188 237.781 364.25 237.969C364.375 238.094 364.469 238.312 364.531 238.625C364.531 238.75 364.5 238.906 364.438 239.094C364.375 239.281 364.344 239.469 364.344 239.656C363.906 240.344 363.625 240.812 363.5 241.062C363.375 241.25 363.188 241.406 362.938 241.531C362.688 241.719 362.375 241.875 362 242C361.688 242.125 361.469 242.375 361.344 242.75C361.094 242.812 360.875 242.844 360.688 242.844C360.5 242.844 360.406 243 360.406 243.312C359.781 243.562 359.438 243.688 359.375 243.688C358.875 243.812 358.5 244 358.25 244.25C357.5 244.5 357 244.688 356.75 244.812C356.562 244.938 356.344 245.062 356.094 245.188C355.531 245.188 355.062 245.25 354.688 245.375C354 245.562 353.531 245.688 353.281 245.75C353.031 245.812 352.781 245.875 352.531 245.938C351.594 246.125 350.969 246.219 350.656 246.219C350.344 246.219 349.969 246.281 349.531 246.406C349.344 246.469 349.094 246.531 348.781 246.594C348.469 246.656 348.25 246.719 348.125 246.781C347.812 246.781 347.5 246.75 347.188 246.688C346.938 246.688 346.688 246.625 346.438 246.5C345.562 246.5 345.156 246.562 345.219 246.688C345.031 246.562 344.812 246.5 344.562 246.5C344.375 246.5 344.188 246.469 344 246.406C343.312 246.281 342.844 246.156 342.594 246.031H341.562C341.25 245.969 340.969 245.875 340.719 245.75C340.469 245.688 340.188 245.594 339.875 245.469C339.25 245.281 338.906 245.188 338.844 245.188C338.781 245.188 338.688 245.156 338.562 245.094C337.938 244.781 337.5 244.562 337.25 244.438C336.438 244.188 335.969 244.031 335.844 243.969C335.531 243.719 335.312 243.594 335.188 243.594C335.062 243.594 334.938 243.562 334.812 243.5C334.5 243.188 334.281 243 334.156 242.938C334.031 242.875 333.906 242.781 333.781 242.656C333.406 242.281 333.156 242.094 333.031 242.094C332.906 242.031 332.781 242 332.656 242C332.156 241.438 331.844 241.094 331.719 240.969C331.594 240.844 331.469 240.719 331.344 240.594C331.031 240.219 330.812 239.938 330.688 239.75C330.562 239.562 330.406 239.375 330.219 239.188C329.719 238.562 329.406 238.188 329.281 238.062C329.156 237.875 329 237.719 328.812 237.594C328.75 237.406 328.625 237.25 328.438 237.125C328.312 237 328.188 236.875 328.062 236.75C327.812 236.25 327.656 235.938 327.594 235.812C327.594 235.688 327.5 235.656 327.312 235.719C327.125 235.156 326.844 234.688 326.469 234.312C326.281 233.875 326.156 233.625 326.094 233.562C326.094 233.5 326.094 233.406 326.094 233.281C325.719 232.719 325.5 232.406 325.438 232.344C324.875 231.594 324.531 231.062 324.406 230.75C324.219 230.375 324.094 230.156 324.031 230.094C323.969 230.031 323.875 229.969 323.75 229.906C323.5 228.906 323.25 228.312 323 228.125C322.812 227.875 322.75 227.531 322.812 227.094C322.688 226.406 322.531 225.969 322.344 225.781C322.219 225.594 322.125 225.406 322.062 225.219V224C322 223.75 321.969 223.344 321.969 222.781C321.906 222.531 321.844 222.281 321.781 222.031C321.719 221.781 321.656 221.5 321.594 221.188C321.594 220.438 321.625 220.031 321.688 219.969C321.5 219.594 321.438 219.125 321.5 218.562C321.625 217.938 321.688 217.375 321.688 216.875C321.75 216.5 321.781 216.188 321.781 215.938C321.781 215.625 321.844 215.375 321.969 215.188L321.781 214.719ZM351.969 207.969C351.844 207.844 351.75 207.688 351.688 207.5C351.688 207.312 351.625 207.094 351.5 206.844C351.188 206.656 350.938 206.438 350.75 206.188C350.625 205.875 350.375 205.656 350 205.531C349.875 205.281 349.625 205.125 349.25 205.062C348.938 205 348.688 204.844 348.5 204.594C348.188 204.531 347.906 204.5 347.656 204.5C347.406 204.5 347.125 204.469 346.812 204.406C346.125 204.344 345.719 204.344 345.594 204.406C345.094 204.406 344.75 204.438 344.562 204.5C344.375 204.562 344.188 204.625 344 204.688C343.875 204.75 343.688 204.781 343.438 204.781C343.25 204.719 343.094 204.719 342.969 204.781C342.219 205.281 341.656 205.594 341.281 205.719C340.719 206.406 340.375 206.812 340.25 206.938C339.875 207.375 339.656 207.625 339.594 207.688C339.531 207.75 339.469 207.844 339.406 207.969C338.906 208.531 338.594 208.938 338.469 209.188C337.906 209.875 337.562 210.25 337.438 210.312C337.312 210.5 337.188 210.719 337.062 210.969C336.938 211.156 336.781 211.312 336.594 211.438C336.344 212.125 336.156 212.562 336.031 212.75C335.969 212.875 335.938 213.062 335.938 213.312C336.312 213.188 336.688 213.094 337.062 213.031C337.5 212.906 337.875 212.781 338.188 212.656C338.625 212.656 338.906 212.625 339.031 212.562C339.219 212.5 339.406 212.406 339.594 212.281C339.906 212.156 340.188 212.094 340.438 212.094C340.688 212.031 341.031 211.969 341.469 211.906C342.094 211.656 342.5 211.5 342.688 211.438C342.938 211.375 343.156 211.312 343.344 211.25C343.656 211.125 343.969 211.062 344.281 211.062C344.656 211.062 344.938 211 345.125 210.875C346 210.625 346.594 210.469 346.906 210.406C347.406 210.406 347.781 210.375 348.031 210.312C348.719 210.062 349.156 209.938 349.344 209.938C349.906 209.875 350.375 209.781 350.75 209.656C351.188 209.469 351.562 209.25 351.875 209C352.188 208.688 352.281 208.469 352.156 208.344C352.094 208.219 352.031 208.094 351.969 207.969Z" fill="white"/>
<defs>
<linearGradient id="paint0_linear" x1="225" y1="0" x2="225" y2="450" gradientUnits="userSpaceOnUse">
<stop stop-color="#42349E"/>
<stop offset="1" stop-color="white" stop-opacity="0"/>
</linearGradient>
</defs>
</svg>
